<?xml version="1.0" encoding="UTF-8"?>
<svg xmlns="http://www.w3.org/2000/svg" version="1.1" viewBox="0 0 150 150">
  <defs>
    <style>
      .cls-1 {
        fill: #ebebeb;
      }

      .cls-2 {
        display: none;
      }
    </style>
  </defs>
  <!-- Generator: Adobe Illustrator 28.7.4, SVG Export Plug-In . SVG Version: 1.2.0 Build 166)  -->
  <g>
    <g id="Layer_1">
      <g id="Layer_1-2" data-name="Layer_1">
        <path class="cls-1" d="M89.6,39.49c-2.71-3.13-4.53-5.49-6.59-7.57-2.65-2.67-3.13-5.24-.42-8.13,1.24-1.33,2.72-2.63,3.41-4.24,2.61-6.01,7.34-7.58,13.03-5.92,3.06.9,5.17.77,7.64-1.25,3.17-2.6,6.91-2.48,10.64-1.03,3.42,1.34,6.87,2.6,10.29,3.93,4.66,1.8,5.75,6.78,1.39,8.1-8.99,2.71-20.31,4.15-30.92,3.26-4.72,3.95-3.24,13.44-8.49,12.87h.02Z"/>
        <g id="Layer_2" class="cls-2">
          <g>
            <path class="cls-1" d="M58.16,71.26c-3-1.08-6.01-2.16-9.15-3.28-.41-4.58,3.27-5.47,6.47-5.84,7.05-.8,10.68-5.04,13.05-11.14.99-2.54,2.25-5.04,3.76-7.31,4.46-6.71,12.4-7.18,16.49-.45,4.57,7.54,8.28,15.62,12.03,23.63.77,1.65.27,4.07-.13,6.04-.3,1.43-1.2,2.85-2.18,3.99-9.45,11.03-9.63,23.65-6.64,36.92.46,2.07,1.19,4.53.5,6.29-.88,2.22-2.74,4.83-4.82,5.61-2.89,1.08-5.24-1.09-5.94-4.16-.67-2.97-1.08-6-1.49-9.01-.62-4.54-1.05-9.09-1.73-13.62-.85-5.61-.58-10.91,3.16-15.61,2.76-3.48,2.94-7.04.51-10.95-2.23-3.6-3.97-7.51-6.45-12.32-3.8,8.13-10.28,10.48-17.75,10.97l.32.28s0-.02,0-.02Z"/>
            <path class="cls-1" d="M55.5,29.6c-.13-5.9,4.36-10.44,10.29-10.4,5.46.03,9.93,4.2,10.28,9.57.36,5.58-4.27,10.7-9.89,10.97-5.64.26-10.56-4.39-10.67-10.13h0Z"/>
            <path class="cls-1" d="M57.85,70.98c.63,2.93,1.76,5.85,1.8,8.79.2,13.11.13,26.23.04,39.34-.02,2.14-.69,4.28-1.92,6.34-3.26-8.47-1.41-17.15-1.99-25.66-.57-8.25,1.18-16.72-1.18-25.07-6.58,1.32-2.05,7.73-6.85,9.98-2.07-3.77-2.13-7.59-.31-10.97,2.4-4.47,6.88-2.73,10.72-2.48,0,0-.32-.28-.32-.28Z"/>
          </g>
        </g>
        <g id="Layer_3" class="cls-2">
          <path class="cls-1" d="M59.89,75.45c-4.04-1.74-6.66-2.89-10.41-4.51,4.88-3.78,9.01-6.96,13.6-10.51-3.17-1.73-5.56-3.04-8.51-4.65,4.53-4.57,8.49-8.57,13.29-13.42-3.34-1.45-5.61-2.44-7.62-3.31,4.33-7.62,8.45-14.84,12.28-21.58,3.3,6.35,6.94,13.34,10.86,20.89-1.25.66-3.26,1.72-6.45,3.42,4.4,4.68,8.58,9.14,13.33,14.19-3.12,1.08-5.51,1.91-9.27,3.22,4.6,3.94,8.62,7.37,13.34,11.39-2.69,1.45-5.05,2.74-8.63,4.67,5.5,4.52,10.53,8.65,16.76,13.77-4.21,1.63-7.57,2.93-11.36,4.4,4.52,7.5,13.45,10.59,20.44,17.95-6.4,2.01-11.55,4.03-16.86,5.18-5.24,1.14-10.66,1.41-17.05,2.19-.2,1.38-.52,3.6-.99,6.83-2.61.16-5.42.34-8.71.53-.31-3.12-.53-5.45-.87-8.88-11.9,3.71-21.59-3.6-34.87-5.21,8.55-6.93,15.18-12.31,22.48-18.23-4.82-1.64-8.16-2.77-13.24-4.5,7.02-5.26,12.4-9.27,18.48-13.83h0Z"/>
        </g>
        <path class="cls-1" d="M25.04,75.03c6.1-4.46,11.13-4.06,16.71-1.73-5.2,5.57-6.83,5.79-16.71,1.73Z"/>
        <path class="cls-1" d="M68.17,101.12c1.95,6.8,1.14,11.59-2.54,16.12-4.3-6.02-4.05-7.96,2.54-16.12Z"/>
        <path class="cls-1" d="M34.59,43.01c7.7,1.18,10.87,5.06,13.32,10.43-6.92.68-8.1-.19-13.32-10.43Z"/>
        <path class="cls-1" d="M67.84,45.11c-5.26-4.09-6.3-8.88-5.02-15.22,6.51,5.18,7.21,7.32,5.02,15.22Z"/>
        <path class="cls-1" d="M38.38,105.14c6.6-1.84,9.74-5.74,10.79-11.72-5.99,1.32-10.51,4.07-10.79,11.72Z"/>
        <path class="cls-1" d="M74.63,50.45c-.87-.12-1.73-.19-2.62-.21-12.73-.21-23.8,10.75-24.02,23.78-.19,11.3,10.86,22.42,22.67,22.81.95.03,1.9,0,2.82-.1.57-8.49,1.06-17.75,1.23-26.81.13-6.82.03-12.99-.09-19.47h0Z"/>
      </g>
      <polygon class="cls-1" points="104.39 132.93 77.92 132.93 77.92 43.46 99.71 43.46 104.39 132.93"/>
      <polygon class="cls-1" points="74.77 96.83 71.39 96.83 69.92 53.19 74.63 50.45 74.77 96.83"/>
    </g>
  </g>
</svg>