<?xml version="1.0" encoding="UTF-8"?>
<svg xmlns="http://www.w3.org/2000/svg" version="1.1" viewBox="0 0 150 150">
  <defs>
    <style>
      .cls-1 {
        fill: #ebebeb;
      }
    </style>
  </defs>
  <!-- Generator: Adobe Illustrator 28.7.4, SVG Export Plug-In . SVG Version: 1.2.0 Build 166)  -->
  <g>
    <g id="Layer_1">
      <g id="Layer_1-2" data-name="Layer_1">
        <g>
          <path class="cls-1" d="M67.03,123.09c4.21-1.22,5.14,0,5.64-4.2.84-7.1,1.9-14.17,2.91-21.25.25-1.72.94-3.31-.88-4.83-.64-.54-.61-2.45-.21-3.48.28-.72,1.68-1.41,2.59-1.42,7.24-.11,14.49-.11,21.73,0,.92.01,2.44.75,2.59,1.4.28,1.21-.16,2.63-.45,3.93-.26,1.11-1.18,2.23-1.05,3.25,1.16,8.91,2.49,17.79,3.8,26.83,2.18-.4,2.85,1.07,3.45,2.64.22.58.56,1.12.74,1.71.71,2.33,1.67,4.31,4.63,3.48.76,2.7.62,2.94-1.86,2.94-27.1,0-67.2,0-94.3,0-.92,0-1.83-.09-2.9-.14-.04-.92-.08-1.66-.13-2.72,4.46.74,4.34-3.05,5.47-5.49.7-1.52,1.2-2.88,3.45-2.41.59-4.13,1.19-8.09,1.73-12.07.71-5.23,1.44-10.46,2-15.7.11-1.02-.58-2.11-.83-3.19-.25-1.07-.83-2.33-.49-3.2.28-.69,1.72-1.28,2.66-1.29,7.16-.1,14.33-.1,21.5-.03,2.74.03,4.37,2.67,2.62,4.61-1.69,1.88-1.25,3.68-1,5.54,1.05,8.08,2.24,16.14,3.39,24.2.04.3,4.56.72,4.65.99l8.55-.11Z"/>
          <path class="cls-1" d="M107.16,66.79c4.47,1.35,8.67,3.21,13.04,3.81,9.07,1.24,7.37-1.04,14-7.68,5.66-5.66,5.9-12.68.98-18.95-.54-.69-1.12-1.62-1.11-2.44.04-8.89-4.87-14.54-12.22-18.39-13.69-7.18-31.67-4.67-43.18,5.68-.8.72-2.38.94-3.54.84-9.48-.89-18.17,1.01-25.48,7.37-1.83,1.6-3.24,3.76-4.54,5.85-.81,1.31-1.51,1.85-3.1,1.64-5.24-.67-10.26.14-14.88,2.82-2.89,1.67-5.28,3.88-6.53,7.07-1.73,4.42-.6,9.23,3.69,11.93,4.59,2.88,5.98,7.33,7.38,11.93.49,1.62.65,3.35.86,5.05.13,1.03.15,2.06-1.4,2.13-1.39.06-1.86-.52-2.05-1.88-.31-2.22-.76-4.44-1.4-6.59-.97-3.25-2.71-5.86-5.58-8.02-6.9-5.18-7.57-13.85-1.82-20.29,5-5.59,11.51-7.79,18.84-7.65,2.09.04,3.32-.56,4.56-2.33,5.04-7.18,12.39-10.72,20.83-12.02,3.43-.53,6.98-.16,10.46-.44,1.11-.09,2.32-.75,3.21-1.48,13.37-11.04,34.99-12.15,48.91-2.38,6.03,4.24,9.84,9.86,10.31,17.45.06,1.01.57,2.09,1.16,2.94,4.91,7.06,4.67,15.02-1.06,21.48-7.18,8.11-6.57,10.7-17.02,9.79-3.21-.28-6.38-1.33-9.48-2.31-1.29-.41-1.82-.17-2.39.88-1.63,2.99-4.09,5.15-7.25,6.3-2.09.76-3.06,2.03-3.06,4.1,0,1.56-.72,2.02-2.18,1.93-1.86-.12-1.32-1.42-1.2-2.4.38-3.03,1.13-5.51,4.72-6.64,4.11-1.29,5.26-3.27,7.49-9.11h.03Z"/>
          <path class="cls-1" d="M51.77,73.23c-.22,1.41-.61,7.98-.68,9.56-.06,1.41-.37,2.21-1.98,2.12-1.7-.09-1.64-1.28-1.43-2.32.49-2.49,1-10,1.8-12.4.49-1.5,1.54-2.07,3.27-1.04,3.56,2.12,17.55,2.89,21.66,2.57,1.94-.15,2.94.61,3.41,2.33.35,1.27.82,7.55.87,8.84.03.64-.64,1.7-1.22,1.9-1.02.35-2.04-.06-2.02-1.48.05-2.66.35-8.38-2.11-8.51-3.13-.16-17.93-.87-21.58-1.58h0Z"/>
        </g>
      </g>
    </g>
  </g>
</svg>