<?xml version="1.0" encoding="UTF-8"?>
<svg xmlns="http://www.w3.org/2000/svg" version="1.1" viewBox="0 0 150 150">
  <defs>
    <style>
      .cls-1 {
        fill: #ebebeb;
      }

      .cls-2 {
        display: none;
      }
    </style>
  </defs>
  <!-- Generator: Adobe Illustrator 28.7.4, SVG Export Plug-In . SVG Version: 1.2.0 Build 166)  -->
  <g>
    <g id="Layer_1">
      <g>
        <g id="Layer_1-2" data-name="Layer_1" class="cls-2">
          <g>
            <path class="cls-1" d="M98.46,54.3h11.47c.39,29.85,1.35,68.97,4.96,80.15h-20.88c2.46-7.59,4.61-54.5,4.45-80.15Z"/>
            <path class="cls-1" d="M67.39,59.2c-.28,11.57-10.25,21.07-21.75,20.74-10.51-.31-20.39-10.19-20.25-20.25.16-11.6,9.99-21.39,21.33-21.24,11.11.15,20.93,10.01,20.67,20.76h0Z"/>
            <path class="cls-1" d="M98.93,49.76c-2.73-3.16-4.56-5.53-6.64-7.63-2.67-2.69-3.16-5.28-.43-8.2,1.25-1.34,2.74-2.65,3.44-4.27,2.63-6.06,7.4-7.64,13.14-5.97,3.09.9,5.21.78,7.7-1.26,3.19-2.62,6.96-2.51,10.73-1.04,3.45,1.35,6.92,2.62,10.37,3.96,4.7,1.82,5.8,6.84,1.4,8.17-9.06,2.73-13.39,13.78-24.08,12.87-4.76,3.98-10.35,3.95-15.64,3.38h.01Z"/>
            <path class="cls-1" d="M5.3,64.8c4.99-4.51,9.49-4.62,14.64-3.07-4.09,5.41-5.52,5.75-14.64,3.07Z"/>
            <path class="cls-1" d="M50.35,84.15c3.6,5.17,4.3,9.44,2.5,14.32-5.35-3.84-5.71-5.55-2.5-14.32Z"/>
            <path class="cls-1" d="M62.38,39.55c-.13-7.22,3.31-10.29,8.96-13.35.11,7.06-3.41,10.08-8.96,13.35Z"/>
            <path class="cls-1" d="M13.3,34.44c6.93.34,10.09,3.48,12.76,8.01-6.07,1.24-7.2.57-12.76-8.01Z"/>
            <path class="cls-1" d="M72.09,56.12c4.94-5.17,9.5-5.01,15.71-2.67-5.04,4.66-9.53,4.9-15.71,2.67Z"/>
            <path class="cls-1" d="M42.81,33.51c-4.03-4.35-4.26-8.72-2.21-14.1,4.98,5.49,5.28,7.48,2.21,14.1Z"/>
            <path class="cls-1" d="M65.78,74.17c7.73.84,11.1,3.68,13.7,9.13-6.93.76-9.74-3.14-13.7-9.13Z"/>
            <path class="cls-1" d="M30.25,80.4c-.38,5.4-2.8,9.13-8.48,11.38-.45-6.8,3.3-9.65,8.48-11.38Z"/>
          </g>
        </g>
        <g id="Layer_2" class="cls-2">
          <g>
            <path class="cls-1" d="M60.79,73.62c-3.12-1.12-6.24-2.24-9.5-3.41-.43-4.76,3.4-5.68,6.72-6.06,7.32-.83,11.09-5.23,13.55-11.57,1.03-2.64,2.34-5.23,3.9-7.59,4.63-6.97,12.88-7.46,17.12-.47,4.74,7.83,8.6,16.22,12.49,24.54.8,1.71.28,4.23-.14,6.27-.31,1.48-1.25,2.96-2.26,4.14-9.81,11.45-10,24.56-6.89,38.33.48,2.15,1.24,4.7.52,6.53-.91,2.3-2.85,5.02-5,5.82-3,1.12-5.44-1.13-6.17-4.32-.7-3.08-1.12-6.23-1.55-9.36-.64-4.71-1.09-9.44-1.8-14.14-.88-5.83-.6-11.33,3.28-16.21,2.87-3.61,3.05-7.31.53-11.37-2.32-3.74-4.12-7.8-6.7-12.79-3.95,8.44-10.67,10.88-18.43,11.39l.33.29v-.02Z"/>
            <path class="cls-1" d="M58.02,30.37c-.13-6.13,4.53-10.84,10.68-10.8,5.67.03,10.31,4.36,10.67,9.94.37,5.79-4.43,11.11-10.27,11.39-5.86.27-10.96-4.56-11.08-10.52h0Z"/>
            <path class="cls-1" d="M60.46,73.33c.65,3.04,1.83,6.07,1.87,9.13.21,13.61.14,27.23.04,40.85-.02,2.22-.72,4.44-1.99,6.58-3.39-8.79-1.46-17.81-2.07-26.64-.59-8.57,1.23-17.36-1.22-26.03-6.83,1.37-2.13,8.03-7.11,10.36-2.15-3.91-2.21-7.88-.32-11.39,2.49-4.64,7.14-2.83,11.13-2.57,0,0-.33-.29-.33-.29Z"/>
          </g>
        </g>
        <g id="Layer_3">
          <path class="cls-1" d="M62.58,77.97c-4.19-1.81-6.92-3-10.81-4.68,5.07-3.92,9.36-7.23,14.12-10.91-3.29-1.8-5.77-3.16-8.84-4.83,4.7-4.74,8.82-8.9,13.8-13.93-3.47-1.51-5.82-2.53-7.91-3.44,4.5-7.91,8.77-15.41,12.75-22.41,3.43,6.59,7.21,13.85,11.28,21.69-1.3.69-3.38,1.79-6.7,3.55,4.57,4.86,8.91,9.49,13.84,14.73-3.24,1.12-5.72,1.98-9.62,3.34,4.78,4.09,8.95,7.65,13.85,11.83-2.79,1.51-5.24,2.84-8.96,4.85,5.71,4.69,10.93,8.98,17.4,14.3-4.37,1.69-7.86,3.04-11.8,4.57,4.69,7.79,13.96,11,21.22,18.64-6.65,2.09-11.99,4.18-17.51,5.38-5.44,1.18-11.07,1.46-17.7,2.27-.21,1.43-.54,3.74-1.03,7.09-2.71.17-5.63.35-9.04.55-.32-3.24-.55-5.66-.9-9.22-12.36,3.85-22.42-3.74-36.21-5.41,8.88-7.2,15.76-12.78,23.34-18.93-5-1.7-8.47-2.88-13.75-4.67,7.29-5.46,12.87-9.63,19.19-14.36h0Z"/>
        </g>
      </g>
    </g>
  </g>
</svg>