<?xml version="1.0" encoding="UTF-8"?>
<svg xmlns="http://www.w3.org/2000/svg" version="1.1" viewBox="0 0 150 150">
  <defs>
    <style>
      .cls-1 {
        fill: #ebebeb;
      }

      .cls-2 {
        display: none;
      }
    </style>
  </defs>
  <!-- Generator: Adobe Illustrator 28.7.4, SVG Export Plug-In . SVG Version: 1.2.0 Build 166)  -->
  <g>
    <g id="Layer_1">
      <g>
        <path class="cls-1" d="M79.5,44.76h22.11c.49,25.83.51,29.93,5.11,92.89h-31.8c4.1-59.91,4.75-63.16,4.58-92.89Z"/>
        <path class="cls-1" d="M90.43,40.63c-2.81-3.25-4.7-5.7-6.84-7.86-2.75-2.77-3.25-5.44-.44-8.44,1.29-1.38,2.82-2.73,3.54-4.4,2.71-6.24,7.62-7.87,13.53-6.15,3.18.93,5.37.8,7.93-1.3,3.29-2.7,7.17-2.58,11.05-1.07,3.55,1.39,7.13,2.7,10.68,4.08,4.84,1.87,5.97,7.04,1.44,8.41-9.33,2.81-21.09,4.31-32.1,3.38-4.9,4.1-3.36,13.95-8.81,13.36h.01Z"/>
      </g>
      <g id="Layer_2" class="cls-2">
        <g>
          <path class="cls-1" d="M57.79,73.62c-3.12-1.12-6.24-2.24-9.5-3.41-.43-4.76,3.4-5.68,6.72-6.06,7.32-.83,11.09-5.23,13.55-11.57,1.03-2.64,2.34-5.23,3.9-7.59,4.63-6.97,12.88-7.46,17.12-.47,4.74,7.83,8.6,16.22,12.49,24.54.8,1.71.28,4.23-.14,6.27-.31,1.48-1.25,2.96-2.26,4.14-9.81,11.45-10,24.56-6.89,38.33.48,2.15,1.24,4.7.52,6.53-.91,2.3-2.85,5.02-5,5.82-3,1.12-5.44-1.13-6.17-4.32-.7-3.08-1.12-6.23-1.55-9.36-.64-4.71-1.09-9.44-1.8-14.14-.88-5.83-.6-11.33,3.28-16.21,2.87-3.61,3.05-7.31.53-11.37-2.32-3.74-4.12-7.8-6.7-12.79-3.95,8.44-10.67,10.88-18.43,11.39l.33.29s0-.02,0-.02Z"/>
          <path class="cls-1" d="M55.02,30.37c-.13-6.13,4.53-10.84,10.68-10.8,5.67.03,10.31,4.36,10.67,9.94.37,5.79-4.43,11.11-10.27,11.39-5.86.27-10.96-4.56-11.08-10.52h0Z"/>
          <path class="cls-1" d="M57.46,73.33c.65,3.04,1.83,6.07,1.87,9.13.21,13.61.14,27.23.04,40.85-.02,2.22-.72,4.44-1.99,6.58-3.39-8.79-1.46-17.81-2.07-26.64-.59-8.57,1.23-17.36-1.22-26.03-6.83,1.37-2.13,8.03-7.11,10.36-2.15-3.91-2.21-7.88-.32-11.39,2.49-4.64,7.14-2.83,11.13-2.57,0,0-.33-.29-.33-.29Z"/>
        </g>
      </g>
      <g id="Layer_3" class="cls-2">
        <path class="cls-1" d="M59.58,77.97c-4.19-1.81-6.92-3-10.81-4.68,5.07-3.92,9.36-7.23,14.12-10.91-3.29-1.8-5.77-3.16-8.84-4.83,4.7-4.74,8.82-8.9,13.8-13.93-3.47-1.51-5.82-2.53-7.91-3.44,4.5-7.91,8.77-15.41,12.75-22.41,3.43,6.59,7.21,13.85,11.28,21.69-1.3.69-3.38,1.79-6.7,3.55,4.57,4.86,8.91,9.49,13.84,14.73-3.24,1.12-5.72,1.98-9.62,3.34,4.78,4.09,8.95,7.65,13.85,11.83-2.79,1.51-5.24,2.84-8.96,4.85,5.71,4.69,10.93,8.98,17.4,14.3-4.37,1.69-7.86,3.04-11.8,4.57,4.69,7.79,13.96,11,21.22,18.64-6.65,2.09-11.99,4.18-17.51,5.38-5.44,1.18-11.07,1.46-17.7,2.27-.21,1.43-.54,3.74-1.03,7.09-2.71.17-5.63.35-9.04.55-.32-3.24-.55-5.66-.9-9.22-12.36,3.85-22.42-3.74-36.21-5.41,8.88-7.2,15.76-12.78,23.34-18.93-5-1.7-8.47-2.88-13.75-4.67,7.29-5.46,12.87-9.63,19.19-14.36h0Z"/>
      </g>
      <path class="cls-1" d="M19.24,77.54c6.33-4.63,11.56-4.22,17.35-1.8-5.4,5.78-7.09,6.01-17.35,1.8Z"/>
      <path class="cls-1" d="M64.03,104.62c2.02,7.06,1.18,12.03-2.64,16.74-4.46-6.25-4.21-8.27,2.64-16.74Z"/>
      <path class="cls-1" d="M29.16,44.29c7.99,1.23,11.29,5.25,13.83,10.83-7.18.71-8.41-.2-13.83-10.83Z"/>
      <path class="cls-1" d="M63.68,46.47c-5.46-4.25-6.54-9.22-5.21-15.8,6.76,5.38,7.49,7.6,5.21,15.8Z"/>
      <path class="cls-1" d="M33.09,108.8c6.85-1.91,10.11-5.96,11.2-12.17-6.22,1.37-10.91,4.23-11.2,12.17Z"/>
      <path class="cls-1" d="M70.73,52.01c-.9-.12-1.8-.2-2.72-.22-13.22-.22-24.71,11.16-24.94,24.69-.2,11.73,11.28,23.28,23.54,23.68.99.03,1.97,0,2.93-.1.59-8.82,1.1-18.43,1.28-27.84.13-7.08.03-13.49-.09-20.22Z"/>
    </g>
  </g>
</svg>