<?xml version="1.0" encoding="UTF-8"?>
<svg xmlns="http://www.w3.org/2000/svg" version="1.1" viewBox="0 0 150 150">
  <defs>
    <style>
      .cls-1 {
        fill: #ebebeb;
      }

      .cls-2 {
        fill: #7f7f7f;
      }

      .cls-3 {
        display: none;
      }
    </style>
  </defs>
  <!-- Generator: Adobe Illustrator 28.7.4, SVG Export Plug-In . SVG Version: 1.2.0 Build 166)  -->
  <g>
    <g id="Layer_1">
      <path class="cls-1" d="M51.04,119.19h0s.42-1.72,1.54-5.67c1.04-9.61,2.36-19.17,3.61-28.75.31-2.33,1.17-4.48-1.09-6.54-.79-.73-.76-3.31-.26-4.71.35-.97,2.09-1.91,3.22-1.92,8.99-.15,17.99-.15,26.98,0,1.14.01,3.03,1.01,3.22,1.89.35,1.64-.2,3.56-.56,5.32-.32,1.5-1.47,3.02-1.3,4.4,1.44,12.06,3.09,24.07,4.72,36.3,2.71-.54,3.54,1.45,4.28,3.57.27.78.7,1.52.92,2.31.88,3.15,2.07,5.83,5.75,4.71.94,3.65,1.05,3.98-2.03,3.98h-56.38c-1.14,0-2.22.07-3.55,0-.05-1.24-.07-2.76-.13-4.19,5.54,1,5.39-4.13,6.79-7.43.87-2.06,1.49-3.9,4.28-3.26"/>
    </g>
    <g id="Layer_2">
      <path class="cls-2" d="M61.15,67.45c-2.22.36.36-2.56-1.09-4.98-1.78-2.99-6.16-4.23-10.08-5.33-7.21-2.03-9.91-.83-12.04-3.02-1.69-1.74-.61-3.13-3.05-6.05-1.71-2.04-2.59-1.78-3.69-3.28-2.46-3.36-1.16-8.95,2.89-11.34,1.83-1.08,3.82-1.27,6.42-1.39,15.63-.71,21.26,2.37,27.67-.44,3.43-1.5,2.11-2.51,6.42-4.76,3.73-1.94,7.41-2.6,17.76-3.24,14-.87,21.07-1.26,24.4,1.01,3.81,2.6,5.65,7.22,5.78,7.56.95,2.48.3,2.86,1.28,5.67,1.63,4.66,3.93,5.06,4.82,8.44,1.15,4.4-1.56,8.21-2.09,8.95-3.47,4.87-9.54,6.43-11.08,6.8-.49.12-9.48,2.19-16.86-1.51-4.17-2.09-5.91-5.06-9.15-4.66-1.71.21-2.81,1.23-3.53,1.89-3.57,3.28-2.89,9.68-2.89,9.68h0s-13.48-1.37-21.9,0Z"/>
    </g>
    <g id="Layer_3" class="cls-3">
      <g id="Layer_1-2" data-name="Layer_1">
        <g id="Layer_1-2">
          <g>
            <path class="cls-2" d="M33.58,36.6c2.09.03,3.32-.44,4.56-1.85,1.69-1.92,7.17-5.94,13.03-7.95,1.16-.4,4.04-1.36,7.8-1.6,2.64-.17,5.28-.13,5.28-.13,2.33.03,3.45.17,5.18-.22,1.44-.32,2.46-.81,3.21-1.18,5.09-2.48,7.63-3.72,8.25-4.08,5.37-3.13,28.77-8.46,40.66,2.19,3.71,3.33,9.99,9.53,10.31,13.86.06.8.57,1.66,1.16,2.33,4.91,5.61,4.67,11.93-1.06,17.06-7.18,6.44-6.57,8.5-17.02,7.77-3.21-.22-6.38-1.06-9.48-1.83-1.29-.33-1.82-.13-2.39.7-1.63,2.37-4.09,4.09-7.25,5-2.09.6-3.06,1.61-3.06,3.26,0,1.24-.72,1.6-2.18,1.53-1.86-.1-1.32-1.13-1.2-1.91.38-2.41,1.13-4.38,4.72-5.27,4.11-1.02,5.26-2.6,7.49-7.23h.03,0c4.47,1.08,8.67,2.56,13.04,3.03,9.07.98,7.37-.83,14-6.1,5.66-4.49,5.9-10.07.98-15.05-.54-.55-1.12-1.29-1.11-1.94.04-7.06-4.87-11.55-12.22-14.6-13.69-5.7-31.67-3.71-43.18,4.51-.8.57-2.38.75-3.54.67-9.48-.71-18.17.8-25.48,5.85-1.83,1.27-3.24,2.99-4.54,4.65-.81,1.04-1.51,1.47-3.1,1.3"/>
            <path class="cls-2" d="M68.87,60.98c1.94-.12,2.94.48,3.41,1.85.35,1.01.82,6,.87,7.02.03.51-.64,1.35-1.22,1.51-1.02.28-2.04-.05-2.02-1.18.05-2.11.35-6.65-2.11-6.76-3.12-.52-7.38-1.26-12.47-2.24-5.27-1.02-8.5-1.74-11.08-4.33-.75-.76-1.79-1.81-2.29-3.49-.84-2.85.79-4.46-.24-5.78-1.16-1.49-3.71-.02-6.26-1.69-.33-.21-2.17-1.39-2.41-3.13-.3-2.15,1.9-4.72,5.54-6.02"/>
          </g>
        </g>
      </g>
    </g>
  </g>
</svg>