<?xml version="1.0" encoding="UTF-8"?>
<svg xmlns="http://www.w3.org/2000/svg" version="1.1" viewBox="0 0 150 150">
  <defs>
    <style>
      .cls-1 {
        fill: #ebebeb;
      }

      .cls-2 {
        display: none;
      }
    </style>
  </defs>
  <!-- Generator: Adobe Illustrator 28.7.4, SVG Export Plug-In . SVG Version: 1.2.0 Build 166)  -->
  <g>
    <g id="Layer_1">
      <g id="Layer_1-2" data-name="Layer_1">
        <g id="Layer_2" class="cls-2">
          <g>
            <path class="cls-1" d="M106.13,58.29c-2.56-8.47-5.08-17-8.52-25.11-3.08-7.25-11.01-7.92-16.38-1.91-1.81,2.03-3.42,4.32-4.76,6.7-.98,1.74-2.06,3.29-3.28,4.6,2.63,2.52,4.65,5.62,5.9,9.06,1.09-1.03,2.12-2.25,3.08-3.71,1.77,5.11,2.93,9.23,4.62,13.12,1.84,4.22,1.16,7.72-2.07,10.76-4.37,4.12-5.4,9.32-5.36,15,.03,4.58-.2,9.15-.23,13.73-.02,3.04-.06,6.1.19,9.14.26,3.14,2.27,5.62,5.29,4.97,2.16-.47,4.38-2.79,5.57-4.86.94-1.65.57-4.18.41-6.3-1.07-13.55.92-26.02,11.85-35.59,1.13-.99,2.23-2.27,2.73-3.63.68-1.89,1.52-4.22,1-5.96Z"/>
            <path class="cls-1" d="M63.29,56.53s-.02-.01-.03-.02l.03.04v-.02Z"/>
            <path class="cls-1" d="M73.18,42.57c-2.78,2.98-6.3,4.71-11.23,4.56-3.22-.1-6.99.25-7.24,4.85,2.93,1.56,5.74,3.05,8.55,4.54l-.24-.28c6.01.47,11.56-.35,16.06-4.6-1.24-3.44-3.27-6.54-5.9-9.06Z"/>
            <path class="cls-1" d="M66.62,14.92c.72-5.86,5.81-9.71,11.67-8.82,5.4.81,9.23,5.58,8.8,10.95-.45,5.57-5.76,9.98-11.36,9.44-5.62-.55-9.82-5.86-9.11-11.56h0Z"/>
            <path class="cls-1" d="M56.95,83.26c-.04.39-.08.78-.11,1.17-.64,8.5-3.72,16.83-1.7,25.68,1.51-1.86,2.48-3.88,2.8-6,1.08-7.08,2.14-14.16,3.16-21.25-1.36.25-2.75.39-4.16.39Z"/>
            <path class="cls-1" d="M63.02,56.21c0,.09.02.18.02.26.08.02.17.04.25.06l-.27-.32Z"/>
            <path class="cls-1" d="M63.04,56.47c-3.7-.84-7.76-3.02-10.71.97-2.29,3.09-2.78,6.88-1.27,10.9,5.07-1.53,1.51-8.53,8.21-8.89,1.09,8.19-1.53,15.96-2.32,23.81,1.41,0,2.8-.14,4.16-.39.85-5.89,1.67-11.79,2.43-17.69.37-2.84-.28-5.79-.5-8.7Z"/>
          </g>
        </g>
        <g id="Layer_3" class="cls-2">
          <path class="cls-1" d="M92.71,83.18c3.97-.91,7.48-1.72,11.88-2.73-5.43-5.96-9.82-10.77-14.61-16.03,3.82-1.4,6.34-2.33,9.21-3.39-4.09-4.66-7.58-8.63-11.57-13.19,3.91-.76,6.39-1.24,9.63-1.86-3.98-5.67-7.47-10.69-11.16-15.95,3.41-1.22,5.54-1.98,6.88-2.46-2.8-8.03-5.4-15.48-7.76-22.23-4.76,6.12-9.86,12.68-15.24,19.6,1.87,1.16,3.97,2.45,7.07,4.37-4.03,3.05-7.55,5.7-11.19,8.45,9.79,4.02,15.99,14.29,14.4,25.24-1.87,12.92-13.87,21.87-26.8,20-1.18-.17-2.33-.43-3.44-.76-5.7,3.4-11.42,6.81-18.26,10.89,12.91,3.49,21.46,12.12,33.77,10.15-.16,3.44-.27,5.78-.41,8.91,3.28.28,6.09.51,8.69.72.93-3.13,1.56-5.28,1.96-6.62,6.43.14,11.84.65,17.18.28,5.43-.38,10.81-1.64,17.43-2.71-5.87-8.28-14.26-12.62-17.66-20.69Z"/>
          <path class="cls-1" d="M80.23,63.01c1.59-10.94-4.61-21.22-14.4-25.24-1.27.96-2.55,1.93-3.88,2.93,2.7,2.02,4.87,3.65,7.76,5.82-5.04,2.85-9.59,5.41-14.96,8.45,3.48,2.14,5.91,3.65,9.66,5.95h0c-6.68,3.64-12.57,6.84-20.27,11.04,4.79,2.43,7.93,4.04,12.46,6.35-2.24,1.33-4.42,2.64-6.6,3.94,1.11.33,2.26.59,3.44.76,12.93,1.87,24.92-7.09,26.8-20Z"/>
        </g>
        <path class="cls-1" d="M34.04,53.29c-4.22-1.88-8.51-2.1-13.97.8,7.08,4.18,9.69,5.14,13.22,3.19.03-.35.07-.69.12-1.04.15-1.01.36-1.99.63-2.95Z"/>
        <path class="cls-1" d="M34.04,53.29c-.27.96-.48,1.94-.63,2.95-.05.35-.09.69-.12,1.04,1.06-.58,2.2-1.41,3.57-2.51-.94-.56-1.88-1.06-2.82-1.48Z"/>
        <path class="cls-1" d="M60.02,86.23c.95,7.01-.53,11.63-4.83,15.59-3.39-6.57-2.87-8.46,4.83-15.59Z"/>
        <path class="cls-1" d="M45.8,36c-1.65-5.67-4.24-9.96-11.69-12.23,3.7,10.88,4.75,11.92,11.69,12.23Z"/>
        <path class="cls-1" d="M65.81,30.68c-4.04-5.3-3.82-10.19-.97-15.99,4.97,6.67,5.11,8.92.97,15.99Z"/>
        <path class="cls-1" d="M39.69,75.91c-5.34.7-9.49,3.04-10.73,9.89,6.26-.81,9.87-3.78,11.88-8.76-.39-.36-.77-.74-1.14-1.13Z"/>
        <path class="cls-1" d="M39.69,75.91c.37.39.75.77,1.14,1.13.17-.42.33-.85.48-1.3-.55.04-1.09.1-1.62.17Z"/>
      </g>
      <path class="cls-1" d="M65.75,36.24c-12.93-1.87-24.92,7.09-26.79,20s7.09,24.9,20.02,26.77c3.58.52,7.09.2,10.33-.79l1.69-44.59c-1.66-.65-3.41-1.12-5.24-1.39Z"/>
      <polygon class="cls-1" points="102.39 133.93 73 133.93 75.92 44.46 97.71 44.46 102.39 133.93"/>
      <path class="cls-1" d="M87.6,40.49c-2.71-3.13-4.53-5.49-6.59-7.57-2.65-2.67-3.13-5.24-.42-8.13,1.24-1.33,2.72-2.63,3.41-4.24,2.61-6.01,7.34-7.58,13.03-5.92,3.06.9,5.17.77,7.64-1.25,3.17-2.6,6.91-2.48,10.64-1.03,3.42,1.34,6.87,2.6,10.29,3.93,4.66,1.8,5.75,6.78,1.39,8.1-8.99,2.71-20.31,4.15-30.92,3.26-4.72,3.95-3.24,13.44-8.49,12.87h.02Z"/>
    </g>
  </g>
</svg>